<svg xmlns="http://www.w3.org/2000/svg" version="1.1" viewBox="0 0 3000 3000" width="3000" height="3000">
<!--ITEM 1--><g><defs><clipPath id="clip-path-id-viewbox-item-1"><rect x="0.0" y="0.0" width="1254.775" height="103.0"/></clipPath></defs><g transform="translate(404.4 2642.4) rotate(0.0 675.0 55.19999999999982) scale(1.0758900998186924 1.0718446601941711)"><g clip-path="url(#clip-path-id-viewbox-item-1)" transform="translate(-0.0 -0.0)"><g id="finance-i1">
    <g>
      <ellipse cx="1160.51" cy="82.5" rx="94.264" ry="20.5" style="         fill: #5b2448;       "/>
      <ellipse cx="952.381" cy="21.538" rx="99.035" ry="21.538" style="         fill: #5b2448;       "/>
      <ellipse cx="75.421" cy="18.195" rx="75.421" ry="16.402" style="         fill: #5b2448;       "/>
    </g>
  </g>
</g></g></g><!--ITEM 2--><g><defs><clipPath id="clip-path-id-viewbox-item-2"><rect x="0.0" y="0.0" width="671.663" height="1205.626"/></clipPath></defs><g transform="translate(562.8 1374.0) rotate(0.0 360.0 646.2) scale(1.0719661496911397 1.0719742274967528)"><g clip-path="url(#clip-path-id-viewbox-item-2)" transform="translate(-0.0 -0.0)"><g id="finance-i2">
    <g>
      <g>
        <rect x="490.122" y="2.5" width="179.041" height="1199.572" style="         fill: #ffcf2d;       "/>
        <path d="M669.163,1204.573H490.122a2.5,2.5,0,0,1-2.5-2.5V2.5a2.5,2.5,0,0,1,2.5-2.5H669.163a2.5,2.5,0,0,1,2.5,2.5V1202.073A2.5,2.5,0,0,1,669.163,1204.573Zm-176.541-5H666.663V5H492.622Z" style="         fill: #ffcf2d;       "/>
      </g>
      <g>
        <rect x="245.785" y="528.037" width="180.094" height="675.089" style="         fill: #66b0f0;       "/>
        <path d="M425.879,1205.625H245.785a2.5,2.5,0,0,1-2.5-2.5V528.037a2.5,2.5,0,0,1,2.5-2.5H425.879a2.5,2.5,0,0,1,2.5,2.5v675.088A2.5,2.5,0,0,1,425.879,1205.625Zm-177.594-5H423.379V530.537H248.285Z" style="         fill: #66b0f0;       "/>
      </g>
      <g>
        <rect x="2.5" y="1004.074" width="180.094" height="197.998" style="         fill: #f94f46;       "/>
        <path d="M182.594,1204.573H2.5a2.5,2.5,0,0,1-2.5-2.5v-198a2.5,2.5,0,0,1,2.5-2.5H182.594a2.5,2.5,0,0,1,2.5,2.5v198A2.5,2.5,0,0,1,182.594,1204.573ZM5,1199.573H180.094v-193H5Z" style="         fill: #f94f46;       "/>
      </g>
    </g>
  </g>
</g></g></g><!--ITEM 3--><g><defs><clipPath id="clip-path-id-viewbox-item-3"><rect x="0.0" y="0.0" width="1200.109" height="2281.713"/></clipPath></defs><g transform="translate(1134.0 290.4) rotate(0.0 643.8 1223.3999999999999) scale(1.0729025446855245 1.0723522195823925)"><g clip-path="url(#clip-path-id-viewbox-item-3)" transform="translate(-0.0 -0.0)"><defs>
    
    <clipPath id="clip-path-i3">
      <path d="M453.483,1926.834c-32.333,12.186-64.96,23.844-89.1,31.722L325.7,1888.383l3.4-76.114c17.251-10.31,33.049-20.179,47.256-29.363Z" style="         fill: none;       "/>
    </clipPath>
    <clipPath id="clip-path-2-i3">
      <path d="M772.3,2019.135c-8.321,25.919-20.19,60.273-33.534,90.858-.537,1.242-1.1,2.475-1.643,3.717l-78.9.717-57.925-49.5c1.274-15.313,2.549-36.219,3.707-57.925Z" style="         fill: none;       "/>
    </clipPath>
    <clipPath id="clip-path-3-i3">
      <path d="M756.167,887.472s20.118,71.914,83.728,183.78c61.084,107.424,124.275,293.837,84.254,442.335-16.468,61.1-49.448,118.562-93.341,170.622-4.078,70.03-17.769,208-46.205,294.357-95.84,12.639-169.053-38.251-227.487-83.2-54.766-42.127-107.425-52.659-116.9-12.638,7.372-50.553,14.744-71.616,27.382-103.212-11.585-29.489-20.979-41.861-31.068-80.568-28.963-111.11-75.3-95.313-88.468-83.2,40.548-41.6,135.334-44.76,172.4-43.5,3.485-129.222-58.653-232.433-102.887-349.336-47.479-125.482-45.475-241.382-18.524-306.578S756.167,887.472,756.167,887.472Z" style="         fill: none;       "/>
    </clipPath>
    <clipPath id="clip-path-4-i3">
      <path d="M1162.741,327.179c-5.894,13.993-80.263,224-109.516,310.419-.249.748-12.038,33.363-16.118,42.18-33.722,73.028-87.271,115.866-87.271,115.866l-86.9-265.3c2.4-3.411,108.9-152.992,136.406-211.818,26.84-57.389,17.295-83.621,1.915-103.808s-61.509-54.787-32.674-55.754c29.792-.987,64.473,27.074,101.883,9.615,43.785-20.435,71.537-72.731,98.456-95.8s33.642-16.337,22.1,9.615c-11.739,26.421-26.355,62.159-26.355,62.159a10.015,10.015,0,0,1,4.808,6.722s11.529,0,17.294,18.262C1200.233,172.424,1216.67,199.084,1162.741,327.179Z" style="         fill: none;       "/>
    </clipPath>
    <clipPath id="clip-path-5-i3">
      <path d="M691.923,1137.075c-23.56-24.865-35.808-37.914-35.808-37.914s21.063,41.074,18.957,88.467-18.957,37.915-22.117,18.957c0,0-6.319,38.968-28.436-11.585,0,0,7.373,37.915-28.436-2.106-68.551-76.619-124.275-107.424-313.321-113.838-61.19-2.085-106.287-7.815-139.357-14.692-.516-.106-1.011-.211-1.516-.316a350.522,350.522,0,0,1-42.485-11.5c-4.34-1.506-8.268-3-11.817-4.465-24.171-9.974-30.732-18.431-30.732-18.431L217.36,946.9l25.181-12.976,68.5-35.323c.1-.053.158-.074.158-.074,61.611,4.739,208,48.973,290.151,103.738S703.508,1105.48,711.933,1127.6,710.88,1157.086,691.923,1137.075Z" style="         fill: none;       "/>
    </clipPath>
    <clipPath id="clip-path-6-i3">
      <path d="M412.053,1118.034l-67.956-8.257c7.258-59.744,38.322-138.285,79.138-200.093l57.125,37.723C445.487,1000.214,418.037,1068.784,412.053,1118.034Z" style="         fill: none;       "/>
    </clipPath>
    <clipPath id="clip-path-7-i3">
      <path d="M1041.575,705.906c-53.854-80.008-132.7-153.346-182.2-177.569-9.413-4.606-18.626-3.49-24.223,2.107-36.861-75.829-172.721-229.594-314.9-184.307,0,0-16.85-10.532-32.648-11.585C467.3,333.2,329.629,351.4,329.629,351.4a452.139,452.139,0,0,1-42.77,50.184C173.87,381.759-44.1,639.626,7.882,979.625c0,0-14.218,12.112-4.213,36.861,10.522,26.027,41.6,62.664,63.191,78.989-13.1-16.247,149.567-146.717,243-196.236,19.637,17.541,44.149,30.642,74.536,37.732,132.088,30.821,303.316-11.585,371.773-49.5,0,0,24.223-30.543,23.17-80.042,18.406,19.822,99.15,46.781,174.1,2.192,42.854-23.256,74.045-56.835,87.738-76.049A24.282,24.282,0,0,0,1041.575,705.906Z" style="         fill: none;       "/>
    </clipPath>
    <clipPath id="clip-path-8-i3">
      <path d="M551.128,27.158a42.709,42.709,0,0,0-38.844,1.462c-14.564-42.579-71.256-33.342-78.035-.43-40.28-28.907-87.3,16.631-70.068,52.154,6.324,13.041,16.388,35.61,11.087,58.2,19.492,8.163,57.365,58.935,57.365,58.935s63.159-92.865,97.241-96.919C583.471,94.183,577.5,40.107,551.128,27.158Z" style="         fill: none;       "/>
    </clipPath>
    <clipPath id="clip-path-9-i3">
      <path d="M584.469,227.171c1.584,11.824-4.072,24.518-16.178,32.187-31.52,19.964-74.718,12.309-74.718,12.309s-10.18,32.343-3.861,87.108c0,0-62.371,19.214-160.083-7.372,0,0,33.7-47.393,50.095-128.55-23.08-1.858-49.913-23.675-45.941-55.026,2.268-17.883,20.546-30.941,38.969-29.026,18.92,1.965,32.105,16.7,47.337,31.57,17.221,16.806,21.328,1.8,26.844-17.128,3.544-12.158,7.659-25.934,16.21-33.936,19.326-18.1,66.731-18.75,66.731-18.75s.558,6.148,1.8,13.836c1.642,10.164,4.5,23.009,8.86,27.875,7.661,8.535,14.661,6.541,15.267,12.413.519,5.033-4.747,11.51-7.843,14.372C552.343,203.357,580.776,199.578,584.469,227.171Z" style="         fill: none;       "/>
    </clipPath>
  </defs>
  <g id="finance-i3">
    <g>
      <path d="M540.265,1892.206c-36.861-60.032-81.095-106.372-105.593-200.629-22.474-86.469-64.213-95.6-86.613-75.831C321.2,1639.442,314.884,1748.973,540.265,1892.206Z" style="         fill: #5b2448;       "/>
      <path d="M549.743,1887.993c-2.948,1.338-6.129,2.738-9.489,4.2h-.01c-22.9,9.974-54.681,22.57-86.761,34.639-32.333,12.186-64.96,23.844-89.1,31.722L325.7,1888.383s-5.771-59.421,3.4-76.114c17.251-10.31,33.049-20.179,47.256-29.363q5.261-3.4,10.237-6.677,3.16-2.069,6.2-4.1c24.445-16.241,43.055-29.669,55.008-38.589,10.216-7.614,15.577-11.954,15.577-11.954S533.23,1826.329,549.743,1887.993Z" style="         fill: #f4ada2;       "/>
      <path d="M453.483,1926.834c-32.333,12.186-64.96,23.844-89.1,31.722L325.7,1888.383l3.4-76.114c17.251-10.31,33.049-20.179,47.256-29.363Z" style="         fill: #66b0f0;       "/>
      <g style="         clip-path: url(#clip-path-i3);       ">
        <path d="M429.685,1945.653a5,5,0,0,1-4.388-2.6L342.1,1791.4a5,5,0,0,1,8.767-4.811l83.2,151.657a5,5,0,0,1-4.379,7.407Z" style="         fill: #fff;       "/>
      </g>
      <path d="M540.254,1892.2h-.01C454.936,1841.621,392.8,1772.133,392.8,1772.133c24.445-16.241,43.055-29.669,55.008-38.589Z" style="         fill: #9b3c82;       "/>
      <path d="M784.6,1977.513c-61.085,2.107-123.457-1.8-230.647-84.254-54.765-42.127-106.371-49.5-113.743-10.532C428.484,1944.722,549.743,2021.747,784.6,1977.513Z" style="         fill: #5b2448;       "/>
      <path d="M784.6,1978.566s-2.317,8.331-6.372,21.643q-.98,3.207-2.085,6.793c-1.18,3.771-2.465,7.836-3.844,12.133-8.321,25.919-20.19,60.273-33.534,90.858-.537,1.242-1.1,2.475-1.643,3.717l-78.9.717-57.925-49.5c1.274-15.313,2.549-36.219,3.707-57.925.116-2.254.243-4.528.358-6.793.2-3.96.411-7.941.6-11.89,1-19.99,1.864-39.5,2.517-54.839l.084-1.949c.727-17.3,1.159-28.794,1.159-28.794Z" style="         fill: #f4ada2;       "/>
      <path d="M784.6,1978.566c-42.128,9.479-150.6,11.585-179.641,9.753,1-19.99,1.864-39.5,2.517-54.839l.084-1.949Z" style="         fill: #9b3c82;       "/>
      <path d="M772.3,2019.135c-8.321,25.919-20.19,60.273-33.534,90.858-.537,1.242-1.1,2.475-1.643,3.717l-78.9.717-57.925-49.5c1.274-15.313,2.549-36.219,3.707-57.925Z" style="         fill: #66b0f0;       "/>
      <g style="         clip-path: url(#clip-path-2-i3);       ">
        <path d="M794.087,2055.183c-.123,0-.246,0-.371-.014-1.663-.121-166.68-12.2-203.1-13.682a5,5,0,0,1,.407-9.992c36.583,1.491,201.761,13.579,203.426,13.7a5,5,0,0,1-.36,9.987Z" style="         fill: #fff;       "/>
      </g>
      <g>
        <path d="M963.57,2243.22c-9.784,11.68-30.279,27.888-73.207,31.68-79.1,6.993-317.608,3.381-317.608,3.381,4.571-25.92,7.541-42.8,9.932-57.736-.1.074-.2.169-.295.253,3.149-24.529,6.424-50.1,9.384-73.312,4.149-32.49,7.541-60.368,9.31-74.228.011-.116.021-.232.042-.348.737-5.782,1.19-9.036,1.274-9.036,28.436,2.106,40.885,27.677,64.044,36.061.759.274,1.527.547,2.307.8,19.747,6.477,62.759,12.607,93.543,16.1,37.831,4.3,71.511,16.9,88.51,24.4,3.1,1.348,5.676,2.569,7.772,3.612,3.676,1.822,7.225,3.686,10.669,5.561,1.137.632,2.254,1.253,3.359,1.875q2.592,1.468,5.108,2.97c.516.3,1.022.6,1.527.905a263.243,263.243,0,0,1,30.816,21.59c.811.653,1.6,1.317,2.391,1.98.285.232.569.464.843.706s.558.464.832.7c.073.074.158.137.231.2.137.127.285.242.422.369.052.042.1.084.147.126.716.611,1.422,1.232,2.117,1.843.19.158.379.327.569.5.379.337.769.685,1.158,1.043.158.137.316.284.474.432.506.452,1,.895,1.5,1.348.042.042.1.084.137.126l.5.474c.179.169.358.326.537.495.337.306.674.632,1.011.948.179.158.348.326.527.505.074.064.158.138.232.211s.168.148.252.232c.5.485.99.958,1.475,1.432.684.664,1.348,1.317,2,1.969q.442.428.853.854c.358.347.695.706,1.043,1.053q.932.948,1.832,1.9c.39.41.78.811,1.169,1.222.2.221.4.431.6.642.368.389.737.79,1.084,1.179.285.306.558.6.832.906.864.937,1.7,1.875,2.5,2.791.379.432.769.863,1.127,1.285.622.716,1.222,1.421,1.812,2.127l1.432,1.717.695.853c.232.274.453.558.674.843.453.558.895,1.105,1.327,1.664.916,1.147,1.78,2.275,2.612,3.391.284.379.558.737.822,1.106,1.706,2.3,3.243,4.486,4.634,6.561.284.421.568.832.832,1.243.484.716.937,1.421,1.379,2.117.685,1.074,1.327,2.117,1.928,3.107q.426.694.821,1.358c2.054,3.486,3.539,6.33,4.539,8.363.137.273.264.536.379.779.516,1.085.864,1.875,1.054,2.327v.011c.063.126.094.231.126.3A1.07,1.07,0,0,0,963.57,2243.22Z" style="         fill: #fff;       "/>
        <path d="M954.912,2227.233c-68.14,48.583-148.277,23.075-187.782,6.677-34.07-14.144-45.318,4.129-73.1-4.687-23.2-7.351-30.489-23.949-60.031-27.382-17.746-2.054-40.642,9.267-51.311,18.7-.1.074-.2.169-.295.253,3.149-24.529,6.424-50.1,9.384-73.312,4.149-32.49,7.541-60.368,9.31-74.228.011-.116.021-.232.042-.348.737-5.782,1.19-9.036,1.274-9.036,28.436,2.106,40.885,27.677,64.044,36.061.759.274,1.527.547,2.307.8,19.747,6.477,62.759,12.607,93.543,16.1,37.831,4.3,71.511,16.9,88.51,24.4,3.1,1.348,5.676,2.569,7.772,3.612,3.676,1.822,7.225,3.686,10.669,5.561,1.137.632,2.254,1.253,3.359,1.875q2.592,1.468,5.108,2.97c.516.3,1.022.6,1.527.905a263.243,263.243,0,0,1,30.816,21.59c.811.653,1.6,1.317,2.391,1.98.285.232.569.464.843.706s.558.464.832.7c.073.074.158.137.231.2.137.127.285.242.422.369.052.042.1.084.147.126.19.158.379.316.558.474.527.453,1.043.906,1.559,1.369.19.158.379.327.569.5.379.337.769.685,1.158,1.043.158.137.316.284.474.432.506.452,1,.895,1.5,1.348.042.042.1.084.137.126l.5.474c.179.169.358.326.537.495.337.306.674.632,1.011.948.179.158.348.326.527.505.074.064.158.138.232.211s.168.148.252.232c.5.485.99.958,1.475,1.432.684.664,1.348,1.317,2,1.969l.39.38c.158.158.305.305.463.474.358.347.695.706,1.043,1.053q.647.631,1.232,1.264l.6.632.295.294c.295.317.59.622.874.928.2.221.4.431.6.642.368.389.737.79,1.084,1.179.285.306.558.6.832.906.864.937,1.7,1.875,2.5,2.791.379.432.769.863,1.127,1.285.622.716,1.222,1.421,1.812,2.127l1.432,1.717.695.853c.232.274.453.558.674.843.453.558.895,1.105,1.327,1.664.916,1.147,1.78,2.275,2.612,3.391.284.379.558.737.822,1.106,1.706,2.3,3.243,4.486,4.634,6.561.284.421.568.832.832,1.243.484.716.937,1.421,1.379,2.117C954.744,2226.969,954.828,2227.1,954.912,2227.233Z" style="         fill: #5b2448;       "/>
        <path d="M592.644,2171.809c-1.246,0-1.979-.065-2.124-.079a3,3,0,0,1,.576-5.972h0c.181.01,18.37,1.465,41.11-14.706,5.025-3.574,9.141-6.776,12.772-9.6,14.08-10.954,21.836-16.987,50.156-20.762a3,3,0,1,1,.793,5.947c-26.711,3.56-33.58,8.9-47.265,19.551-3.679,2.862-7.849,6.105-12.978,9.754C615.349,2170.4,598.446,2171.809,592.644,2171.809Z" style="         fill: #fff;       "/>
        <path d="M863.858,2257.924q-6.781,0-13.747-.489c-26.23-1.842-54.47-8.979-83.936-21.212-18.727-7.774-30.871-6.052-42.616-4.385-8.983,1.274-18.272,2.592-29.7-.741-10.758-3.138-17.6-8.2-24.212-13.1-8.243-6.105-16.029-11.872-31.285-14.21-26.14-3.991-53.306,15.935-53.577,16.136a2.5,2.5,0,1,1-2.985-4.012c1.177-.876,29.137-21.388,57.32-17.065,16.479,2.524,25.133,8.935,33.5,15.134,6.55,4.85,12.736,9.432,22.637,12.319,10.4,3.034,18.753,1.848,27.6.592,11.832-1.68,25.244-3.581,45.235,4.718,28.966,12.025,56.679,19.037,82.369,20.841,39.127,2.747,73.787-6.419,103-27.252a2.5,2.5,0,1,1,2.778,4.16C929.56,2248.341,898.538,2257.924,863.858,2257.924Z" style="         fill: #5b2448;       "/>
        <path d="M633.24,2264.372c-8.7,0-16.9-1.984-23.147-5.6-6.732-3.9-10.455-9.251-10.484-15.075s3.64-11.213,10.332-15.177c6.274-3.717,14.576-5.788,23.378-5.832h.287c8.7,0,16.9,1.984,23.147,5.6,6.731,3.9,10.455,9.251,10.484,15.074h0c.029,5.824-3.641,11.214-10.333,15.178-6.273,3.717-14.575,5.788-23.377,5.832Zm.368-36.683h-.264c-7.927.039-15.333,1.862-20.854,5.132-5.1,3.024-7.9,6.877-7.881,10.852s2.857,7.8,7.989,10.772c5.491,3.18,12.812,4.926,20.639,4.926h.265c7.927-.039,15.333-1.862,20.854-5.133,5.1-3.023,7.9-6.877,7.881-10.851h0c-.02-3.976-2.858-7.8-7.989-10.773C648.756,2229.435,641.436,2227.689,633.608,2227.689Z" style="         fill: #5b2448;       "/>
        <path d="M704.773,2281.7c-70.055,0-130.853-.9-132.055-.915a2.5,2.5,0,0,1-2.425-2.934c4.769-27.042,7.582-43.055,9.926-57.7,4.378-27.339,6.89-48.846,13.6-106.324,1.393-11.925,2.969-25.42,4.782-40.86.009-.1.024-.251.049-.408l.741-6.34a2.5,2.5,0,0,1,4.966.578l-.747,6.4c-.007.055-.015.109-.025.163l-.011.123c-1.82,15.5-3.4,29-4.789,40.923-6.721,57.555-9.235,79.09-13.631,106.535-2.265,14.147-4.962,29.548-9.429,54.881,27.608.381,241.081,3.071,314.416-3.413,39.511-3.489,60.083-17.789,70.519-29.641-.16-.355-.354-.775-.583-1.254-.108-.228-.228-.478-.359-.738-1.284-2.61-2.781-5.368-4.455-8.209-.251-.421-.519-.865-.8-1.318-.6-.989-1.232-2.014-1.906-3.072-.431-.678-.871-1.364-1.342-2.06-.28-.435-.536-.819-.812-1.214-1.482-2.21-3.018-4.384-4.59-6.5-.274-.382-.53-.727-.8-1.072-.9-1.213-1.742-2.3-2.585-3.358-.644-.822-1.294-1.648-1.974-2.473l-.706-.866c-.327-.4-.664-.8-1.006-1.208l-.406-.483c-.581-.7-1.171-1.389-1.782-2.093l-.318-.366c-.254-.292-.51-.587-.776-.883-.813-.93-1.631-1.851-2.479-2.773-.269-.3-.52-.58-.79-.86l-.069-.074c-.332-.371-.684-.754-1.036-1.126-.21-.222-.422-.447-.635-.681l-1.132-1.182q-.882-.929-1.8-1.862l-.42-.427c-.191-.2-.382-.392-.581-.585-.312-.322-.575-.585-.847-.847-.677-.677-1.331-1.321-2-1.974l-.075-.072c-.609-.589-1.227-1.187-1.855-1.775-.519-.5-1.029-.975-1.539-1.454l-.541-.5c-.673-.632-1.37-1.268-2.079-1.894-.186-.173-.321-.3-.455-.416-.6-.545-1.16-1.04-1.738-1.547l-.174-.153c-.631-.554-1.27-1.116-1.918-1.668-.012-.01-.1-.083-.109-.094-.529-.459-1.011-.868-1.5-1.279-.3-.266-.56-.475-.818-.685-.808-.679-1.585-1.331-2.382-1.973a261.934,261.934,0,0,0-30.535-21.394c-.427-.266-.825-.5-1.218-.725l-.281-.163c-1.611-.964-3.313-1.953-5.082-2.956q-1.64-.921-3.341-1.863c-3.716-2.024-7.178-3.828-10.564-5.507-2.411-1.2-4.987-2.4-7.661-3.561-15.45-6.7-42.558-15.763-83.939-20.832a2.5,2.5,0,0,1,.608-4.963c41.975,5.141,69.568,14.372,85.325,21.21,2.753,1.2,5.407,2.433,7.89,3.667,3.442,1.706,6.959,3.539,10.751,5.605,1.16.643,2.28,1.267,3.389,1.89,1.81,1.026,3.546,2.036,5.166,3l.25.145c.439.256.882.514,1.318.785a266.634,266.634,0,0,1,31.072,21.774c.813.655,1.617,1.329,2.42,2,.28.227.59.481.89.746.464.386.973.819,1.47,1.252.036.031.074.062.091.078.7.6,1.36,1.176,2.008,1.745l.174.152c.6.525,1.178,1.04,1.758,1.567.138.118.319.287.5.456.693.612,1.428,1.282,2.141,1.951l.536.494c.524.491,1.046.982,1.558,1.473.626.586,1.263,1.2,1.89,1.808l.076.073c.7.675,1.37,1.338,2.032,2,.284.274.59.579.885.885.173.166.4.395.619.623l.391.4c.646.657,1.267,1.3,1.877,1.94l1.172,1.225c.224.247.411.444.6.641.376.4.75.8,1.1,1.2.306.318.591.635.865.943.852.924,1.7,1.878,2.513,2.809.262.29.539.61.814.926l.313.36c.637.734,1.247,1.452,1.846,2.169l.4.473c.357.425.712.847,1.055,1.267l.695.854c.7.846,1.376,1.706,2.032,2.545.863,1.081,1.734,2.212,2.648,3.438.279.362.57.754.85,1.145,1.593,2.144,3.176,4.385,4.677,6.623.288.411.58.848.86,1.286.464.685.929,1.411,1.385,2.125.693,1.089,1.346,2.148,1.956,3.153.282.459.561.922.831,1.374,1.743,2.96,3.3,5.829,4.634,8.538.138.277.27.553.392.8.542,1.14.905,1.968,1.1,2.442l.021.052c.031.071.057.136.081.2.014.032.028.065.041.1a2.025,2.025,0,0,1-.354,2.675c-19.4,23.161-51.442,30.493-74.9,32.565C851.72,2280.825,773.759,2281.7,704.773,2281.7Zm261.136-39.347,0,0Zm-.151-.384.036.076-.036-.076Z" style="         fill: #5b2448;       "/>
        <path d="M739.785,2183.578a7.5,7.5,0,0,1-6.91-10.393c.733-1.746,18.5-42.958,66.485-59.835a7.5,7.5,0,1,1,4.977,14.15c-41.52,14.6-57.482,51.139-57.638,51.507A7.516,7.516,0,0,1,739.785,2183.578Z" style="         fill: #ffcf2d;       "/>
        <path d="M775.379,2195.011a7.5,7.5,0,0,1-6.862-10.505c.777-1.771,19.6-43.54,68.932-57.988a7.5,7.5,0,1,1,4.215,14.394c-42.428,12.428-59.254,49.269-59.419,49.639A7.517,7.517,0,0,1,775.379,2195.011Z" style="         fill: #ffcf2d;       "/>
        <path d="M816.18,2203.458a7.5,7.5,0,0,1-6.789-10.659c.716-1.536,18.068-37.757,63.1-50.357a7.5,7.5,0,0,1,4.042,14.445c-38.182,10.683-53.408,41.962-53.558,42.276A7.519,7.519,0,0,1,816.18,2203.458Z" style="         fill: #ffcf2d;       "/>
      </g>
      <g>
        <path d="M372.583,2214c-15.1-2.069-39.724-10.8-65.775-45.127-48.01-63.257-171.854-267.119-171.854-267.119,24.378-9.921,40.252-16.389,54.169-22.311-.113-.041-.249-.079-.371-.115,22.444-10.385,45.838-21.217,67.066-31.062,29.718-13.774,55.126-25.736,67.8-31.612.1-.053.208-.106.317-.149,5.288-2.453,8.284-3.8,8.329-3.729,13.347,25.2-1.681,49.343,3.544,73.413.171.787.349,1.584.549,2.378,5.023,20.166,22.719,59.846,36.138,87.771,16.49,34.317,23.737,69.542,26.433,87.924.5,3.34.844,6.174,1.076,8.5.413,4.081.723,8.078.969,11.991.07,1.3.138,2.575.2,3.843q.135,2.974.2,5.9c.016.6.036,1.184.046,1.774a263.2,263.2,0,0,1-1.884,37.58c-.121,1.034-.263,2.056-.4,3.078-.045.364-.09.728-.15,1.089s-.095.719-.145,1.074c-.024.1-.032.206-.046.3-.035.184-.054.37-.088.553-.008.067-.021.125-.029.192-.136.932-.287,1.86-.434,2.773-.033.245-.075.5-.117.745-.083.5-.17,1.016-.266,1.536-.032.206-.073.419-.114.631-.114.669-.225,1.323-.345,1.983-.013.059-.021.126-.034.184l-.132.68c-.048.241-.086.477-.134.718-.079.448-.176.907-.264,1.36-.039.236-.092.468-.148.715-.015.1-.033.207-.056.309s-.035.221-.061.337c-.147.677-.285,1.348-.429,2.01-.2.933-.4,1.842-.6,2.742-.084.4-.173.793-.268,1.177-.1.488-.228.964-.337,1.443q-.308,1.293-.631,2.56c-.14.549-.272,1.092-.412,1.64-.081.287-.153.569-.225.85-.133.519-.276,1.045-.421,1.546-.107.4-.211.792-.324,1.187-.334,1.229-.685,2.433-1.035,3.6-.164.551-.322,1.11-.489,1.638-.275.907-.553,1.791-.837,2.665-.233.719-.462,1.423-.692,2.127l-.352,1.042c-.108.342-.232.68-.355,1.019-.232.681-.459,1.346-.7,2.009-.484,1.387-.979,2.718-1.481,4.016-.17.442-.327.865-.5,1.284-1.037,2.666-2.073,5.133-3.09,7.415-.205.464-.4.924-.609,1.365-.349.791-.706,1.55-1.059,2.295-.545,1.151-1.086,2.25-1.605,3.285q-.361.73-.713,1.418c-1.859,3.594-3.477,6.364-4.666,8.293-.158.261-.314.509-.457.735-.645,1.015-1.128,1.729-1.411,2.131l-.009.005c-.073.121-.145.2-.182.264A1,1,0,0,0,372.583,2214Z" style="         fill: #fff;       "/>
        <path d="M381.513,2198.165c-77.391-31.845-98.432-113.268-105.568-155.442-6.152-36.373-27.608-36.174-34.927-64.388-6.121-23.556,4.055-38.558-8.757-65.4-7.7-16.118-29.471-29.48-43.138-33.493-.113-.041-.249-.079-.371-.115,22.444-10.385,45.838-21.217,67.066-31.062,29.718-13.774,76.4-35.562,76.448-35.49,13.347,25.2-1.681,49.343,3.544,73.413.171.787.349,1.584.549,2.378,5.023,20.166,22.719,59.846,36.138,87.771,16.49,34.317,23.737,69.542,26.433,87.924.5,3.34.844,6.174,1.076,8.5.413,4.081.723,8.078.969,11.991.07,1.3.138,2.575.2,3.843q.135,2.974.2,5.9c.016.6.036,1.184.046,1.774a263.2,263.2,0,0,1-1.884,37.58c-.121,1.034-.263,2.056-.4,3.078-.045.364-.09.728-.15,1.089s-.095.719-.145,1.074c-.024.1-.032.206-.046.3-.035.184-.054.37-.088.553-.008.067-.021.125-.029.192-.033.245-.066.489-.105.725-.1.687-.212,1.365-.329,2.048-.033.245-.075.5-.117.745-.083.5-.17,1.016-.266,1.536-.032.206-.073.419-.114.631-.114.669-.225,1.323-.345,1.983-.013.059-.021.126-.034.184l-.132.68c-.048.241-.086.477-.134.718-.079.448-.176.907-.264,1.36-.039.236-.092.468-.148.715-.015.1-.033.207-.056.309s-.035.221-.061.337c-.147.677-.285,1.348-.429,2.01-.2.933-.4,1.842-.6,2.742l-.114.532c-.05.218-.1.421-.154.645-.1.488-.228.964-.337,1.443q-.192.885-.415,1.716l-.216.844c-.033.145-.063.276-.092.407-.111.418-.213.83-.32,1.233-.081.287-.153.569-.225.85-.133.519-.276,1.045-.421,1.546-.107.4-.211.792-.324,1.187-.334,1.229-.685,2.433-1.035,3.6-.164.551-.322,1.11-.489,1.638-.275.907-.553,1.791-.837,2.665-.233.719-.462,1.423-.692,2.127l-.352,1.042c-.108.342-.232.68-.355,1.019-.232.681-.459,1.346-.7,2.009-.484,1.387-.979,2.718-1.481,4.016-.17.442-.327.865-.5,1.284-1.037,2.666-2.073,5.133-3.09,7.415-.205.464-.4.924-.609,1.365-.349.791-.706,1.55-1.059,2.295C381.646,2197.882,381.584,2198.021,381.513,2198.165Z" style="         fill: #5b2448;       "/>
        <path d="M331.2,1926.44a2.994,2.994,0,0,1-2.308-1.082c-17.227-20.722-25.407-23.695-41.7-29.618-4.38-1.591-9.345-3.4-15.163-5.8-28.019-11.569-37.03-29.1-37.4-29.84a3,3,0,0,1,5.364-2.689c.13.253,8.607,16.364,34.324,26.982,5.7,2.353,10.6,4.133,14.924,5.706,16.766,6.092,26,9.449,44.266,31.42a3,3,0,0,1-2.3,4.918Z" style="         fill: #fff;       "/>
        <path d="M381.519,2200.671a2.512,2.512,0,0,1-1.094-.251c-34.219-14.117-61.216-39.323-80.246-74.921-12.4-23.188-21.38-50.9-26.7-82.354-3.381-19.993-11.3-29.359-18.962-38.416-5.859-6.928-11.917-14.091-15.177-25.544-3.067-10.779-2.417-19.265-1.789-27.472.783-10.227,1.523-19.889-4.615-34.049-10.509-24.245-42.2-36.288-42.519-36.407a2.5,2.5,0,0,1,1.745-4.686c1.384.516,34.015,12.927,45.362,39.105,6.63,15.3,5.808,26.034,5.013,36.419-.623,8.126-1.21,15.8,1.612,25.721,2.965,10.416,8.415,16.861,14.186,23.684,7.717,9.125,16.465,19.468,20.074,40.811,5.231,30.925,14.039,58.12,26.18,80.831,18.494,34.594,44.7,59.058,77.88,72.713a2.5,2.5,0,0,1-.949,4.816Z" style="         fill: #5b2448;       "/>
        <path d="M206.959,1965.361c-9.15,0-20.13-7.334-27.893-19.551-4.72-7.429-7.465-15.533-7.729-22.821-.282-7.773,2.27-13.774,7.185-16.9s11.431-2.886,18.349.673c6.485,3.334,12.656,9.262,17.377,16.69s7.465,15.533,7.729,22.821c.281,7.773-2.27,13.773-7.185,16.9h0A14.4,14.4,0,0,1,206.959,1965.361Zm-20.627-56.444a9.4,9.4,0,0,0-5.128,1.4c-3.355,2.131-5.085,6.569-4.87,12.5.232,6.413,2.7,13.629,6.953,20.319,8.376,13.184,21.576,20.429,28.823,15.823h0c3.355-2.131,5.085-6.568,4.87-12.5-.232-6.413-2.7-13.629-6.953-20.319s-9.735-11.991-15.442-14.926A18.4,18.4,0,0,0,186.332,1908.917Z" style="         fill: #5b2448;       "/>
        <path d="M372.821,2216.521a4.365,4.365,0,0,1-.578-.043c-29.933-4.1-53.188-27.33-67.426-46.094-47.539-62.634-170.76-265.291-172-267.331a2.5,2.5,0,0,1,1.194-3.613c25.444-10.356,40.5-16.5,54.132-22.3,25.487-10.842,45.045-20.165,97.316-45.08,10.825-5.161,23.072-11,37.086-17.667.1-.05.231-.116.377-.177l5.757-2.745a2.5,2.5,0,0,1,2.153,4.513l-5.818,2.774c-.054.025-.108.049-.164.071l-.1.049c-14.075,6.7-26.32,12.535-37.145,17.695-52.34,24.949-71.925,34.284-97.509,45.168-13.17,5.6-27.651,11.518-51.485,21.219,14.368,23.577,125.674,205.756,170.183,264.4,23.978,31.6,47.031,41.409,62.619,43.938.215-.324.467-.712.752-1.161.141-.223.286-.453.434-.695,1.525-2.475,3.063-5.21,4.579-8.141.225-.44.457-.9.693-1.379.517-1.031,1.05-2.113,1.587-3.246.344-.726.691-1.464,1.03-2.233.219-.467.407-.886.593-1.329,1.081-2.424,2.1-4.88,3.064-7.348.177-.435.333-.835.483-1.242.55-1.423,1.025-2.711,1.467-3.977.355-.985.708-1.975,1.045-2.99l.358-1.058c.159-.472.313-.953.469-1.438l.212-.657c.279-.86.552-1.73.824-2.623l.15-.5c.109-.358.219-.721.324-1.092.355-1.184.7-2.367,1.028-3.575.112-.387.216-.75.309-1.13.008-.032.017-.064.026-.1.139-.478.275-.979.4-1.474.075-.3.152-.6.238-.9l.4-1.584q.317-1.244.619-2.516l.138-.585c.064-.265.129-.531.186-.8.107-.435.189-.8.267-1.168.212-.932.409-1.83.6-2.749.181-.859.366-1.735.536-2.614.145-.7.277-1.382.411-2.064l.137-.738c.177-.906.344-1.835.5-2.767.047-.249.083-.432.11-.609.141-.8.264-1.531.385-2.291l.023-.145c.139-.856.279-1.725.406-2.6,0-.017.02-.132.023-.148.106-.685.2-1.311.282-1.945.064-.4.1-.721.143-1.045.146-1.059.286-2.065.405-3.081a261.779,261.779,0,0,0,1.867-37.238c0-.5-.017-.96-.033-1.413l-.011-.329c-.043-1.872-.11-3.84-.2-5.874-.062-1.254-.13-2.525-.2-3.821-.265-4.229-.579-8.119-.959-11.874-.266-2.672-.623-5.491-1.061-8.38-2.543-16.65-9.3-44.42-27.024-82.157a2.5,2.5,0,0,1,4.526-2.126c17.982,38.278,24.848,66.552,27.441,83.53.451,2.976.819,5.88,1.093,8.633.386,3.815.7,7.768.976,12.083.072,1.325.14,2.6.2,3.876.094,2.082.163,4.088.2,5.971l.011.294c.017.507.035,1.019.036,1.532a266.587,266.587,0,0,1-1.9,37.891c-.122,1.037-.265,2.076-.409,3.115-.046.372-.1.765-.159,1.154-.079.594-.175,1.256-.276,1.907l-.019.121c-.137.943-.282,1.837-.424,2.717l-.022.139c-.125.784-.253,1.548-.389,2.32-.028.181-.074.425-.121.667-.149.915-.326,1.893-.513,2.853l-.134.72c-.138.711-.275,1.409-.417,2.1-.17.877-.36,1.78-.547,2.667-.2.948-.4,1.869-.612,2.782-.081.388-.177.809-.279,1.222-.048.234-.123.544-.2.853l-.129.545c-.213.9-.426,1.764-.645,2.622l-.414,1.643c-.089.322-.156.585-.223.846-.137.534-.282,1.066-.429,1.576-.106.427-.223.837-.337,1.233-.33,1.213-.687,2.438-1.043,3.624-.1.364-.222.758-.34,1.146l-.148.49c-.283.932-.566,1.83-.854,2.719l-.207.644c-.164.51-.326,1.016-.494,1.512l-.352,1.042c-.346,1.045-.714,2.075-1.075,3.076-.452,1.3-.946,2.635-1.5,4.07-.156.427-.334.884-.517,1.331-.971,2.5-2.027,5.032-3.12,7.484-.193.459-.409.94-.631,1.412-.332.757-.7,1.536-1.061,2.3-.553,1.167-1.1,2.282-1.629,3.333-.24.486-.484.97-.723,1.438-1.578,3.05-3.179,5.9-4.762,8.465-.155.255-.313.506-.46.738-.69,1.087-1.2,1.834-1.492,2.254l-.035.048c-.045.066-.088.125-.127.178l-.058.084A1.836,1.836,0,0,1,372.821,2216.521Zm1.748-1.005,0,0Zm.24-.328c-.016.026-.033.051-.05.078.016-.024.034-.052.05-.078Zm-1.938-1.579h0Z" style="         fill: #5b2448;       "/>
        <path d="M395.47,2025.873a7.474,7.474,0,0,1-4.959-1.876c-33-29.118-72.682-25.228-73.08-25.182a7.5,7.5,0,0,1-1.663-14.909c1.882-.212,46.523-4.812,84.668,28.843a7.5,7.5,0,0,1-4.966,13.124Z" style="         fill: #ffcf2d;       "/>
        <path d="M402.27,2065.273a7.473,7.473,0,0,1-5.254-2.149c-31.744-31.166-71.9-27.693-72.3-27.65a7.5,7.5,0,0,1-1.44-14.932c1.925-.182,47.57-4.133,84.25,31.879a7.5,7.5,0,0,1-5.255,12.852Z" style="         fill: #ffcf2d;       "/>
        <path d="M405.4,2103.565a7.476,7.476,0,0,1-5.318-2.212c-27.954-28.117-62.686-26.145-63.034-26.124a7.5,7.5,0,0,1-1.071-14.961c1.69-.128,41.773-2.65,74.742,30.509a7.5,7.5,0,0,1-5.319,12.788Z" style="         fill: #ffcf2d;       "/>
      </g>
      <path d="M924.149,1513.587c-17.08,60.939-49.447,118.557-93.343,170.626-4.076,70.026-17.767,207.993-46.2,294.353-95.84,12.639-169.057-38.251-227.487-83.2-54.766-42.127-107.425-52.659-116.9-12.638,7.372-50.553,14.744-71.616,27.382-103.212-11.585-29.489-20.979-41.864-31.068-80.568-28.963-111.11-75.3-95.313-88.468-83.2,40.548-41.6,135.334-44.76,172.4-43.5,3.486-129.226-58.652-232.437-102.886-349.34-33.554-88.678-42.39-172.574-35.176-237.166a283.589,283.589,0,0,1,10.342-51.722q2.861-9.367,6.309-17.693C426,851.137,756.167,887.472,756.167,887.472s5.023,17.935,17.967,49.826c12.975,31.964,37.244,76.188,65.761,133.954C901.506,1196.053,966.8,1361.4,924.149,1513.587Z" style="         fill: #21a0aa;       "/>
      <path d="M774.134,937.3q-8.293,4.376-16.724,8.352A505.853,505.853,0,0,1,665.1,978.361c-65.36,16.588-127.54,20.411-169.541,20.769a442.559,442.559,0,0,1-113.164-13.386,283.589,283.589,0,0,1,10.342-51.722c81.99,21.622,176.092,12.112,253.469-7.477.19-.053.379-.095.569-.148a617.476,617.476,0,0,0,90.194-30.11c.885-.38,1.759-.759,2.633-1.148,5.867-2.549,11.4-5.119,16.567-7.667C756.167,887.472,761.19,905.407,774.134,937.3Z" style="         fill: #5b2448;       "/>
      <g style="         clip-path: url(#clip-path-3-i3);       ">
        <path d="M832.525,1705.659c-.055,0-.11,0-.165-.005a2.5,2.5,0,0,1-2.332-2.657c3.056-47.073,1.8-108.169-3.439-167.622-6.865-77.849-19.85-150.5-38.6-215.937-28.875-100.789-41.392-168.862-46.808-208.22-5.89-42.8-4.934-61.45-4.891-62.224a2.5,2.5,0,0,1,4.992.281c-.041.745-3.483,76.814,51.514,268.786,18.834,65.742,31.878,138.709,38.77,216.875,5.264,59.7,6.521,121.069,3.448,168.385A2.5,2.5,0,0,1,832.525,1705.659Z" style="         fill: #6ce0dc;       "/>
        <path d="M456.535,1798.341a2.5,2.5,0,0,1-2.217-3.653c54.839-105.617,76.745-220.376,71.027-372.1a2.5,2.5,0,1,1,5-.187c5.753,152.637-16.325,268.166-71.585,374.593A2.5,2.5,0,0,1,456.535,1798.341Z" style="         fill: #6ce0dc;       "/>
      </g>
      <path d="M311.2,898.53c61.611,4.739,208,48.973,290.151,103.738S703.508,1105.48,711.933,1127.6s-1.053,29.489-20.01,9.478c-23.56-24.868-35.808-37.914-35.808-37.914s21.063,41.074,18.957,88.467-18.957,37.915-22.117,18.957c0,0-6.319,38.968-28.436-11.585,0,0,7.373,37.915-28.436-2.106-68.555-76.621-124.275-107.424-313.321-113.839-192.652-6.538-225.907-49.4-225.907-49.4Z" style="         fill: #f4ada2;       "/>
      <g>
        <path d="M1162.737,327.18c-30.827,85.328-57.989,217.86-106.372,324.853a527.734,527.734,0,0,1-34.186,64.413c-20.5,32.469-44.265,59.915-72.343,79.2C910.553,662.1,864.434,534.477,863,530.517a.527.527,0,0,0-.031-.1c-.021-.052-.032-.084-.032-.084,2.4-3.412,108.889-152.995,136.4-211.815,26.845-57.388,17.293-83.623,1.916-103.812s-61.5-54.787-32.669-55.756c29.784-.979,64.465,27.077,101.884,9.616,43.781-20.432,73.028-71.09,98.452-95.8,24.318-23.633,33.638-16.334,22.106,9.616-11.743,26.424-26.361,62.159-26.361,62.159a10.023,10.023,0,0,1,4.813,6.719s11.522,0,17.293,18.262C1200.23,172.425,1212.194,190.266,1162.737,327.18Z" style="         fill: #f4ada2;       "/>
        <g style="         clip-path: url(#clip-path-4-i3);       ">
          <path d="M1086.876,226.983a8.084,8.084,0,0,1-3.617-.811c-6.209-3.058-6.721-13.46-1.369-27.826,12.31-33.05,27.972-53.519,46.548-60.838,18.935-7.459,35.669.907,41.167,3.656a2.5,2.5,0,1,1-2.236,4.472c-5-2.5-20.236-10.118-37.1-3.475-17.2,6.776-31.9,26.266-43.7,57.93-4.575,12.283-4.02,20.161-1.107,21.6,4.557,2.244,19.2-7.014,40.878-41.7a2.5,2.5,0,1,1,4.24,2.65C1112.875,210.978,1096.974,226.983,1086.876,226.983Z" style="         fill: #9b3c82;       "/>
          <path d="M1111.374,250.613a6.614,6.614,0,0,1-3.256-.8c-7.168-3.96-4.6-20.148,7.636-48.114,15.035-34.365,27.436-52.386,53.488-55.513a2.5,2.5,0,1,1,.6,4.965c-21.181,2.542-33.21,15.312-49.5,52.552-13.139,30.034-12.155,40.432-9.8,41.734,3.538,1.96,17.489-7.975,36.2-35.491a2.5,2.5,0,1,1,4.135,2.812C1137.893,231.84,1121.432,250.612,1111.374,250.613Z" style="         fill: #9b3c82;       "/>
          <path d="M1145.827,259.856a6.268,6.268,0,0,1-2.115-.352c-6.542-2.33-6.924-13.892-1.168-35.346,9.4-35.03,20.584-58.6,44.625-59.741a2.5,2.5,0,0,1,.238,4.994c-18.222.868-29.446,16.581-40.034,56.043-7.274,27.114-2.2,29.261-1.984,29.34,5.42,1.932,24.463-18.94,37.66-48.314a2.5,2.5,0,0,1,4.561,2.048C1176.171,233.991,1156.972,259.854,1145.827,259.856Z" style="         fill: #9b3c82;       "/>
          <path d="M1086.327,284.018a2.542,2.542,0,0,1-.608-.075,2.5,2.5,0,0,1-1.819-3.032c2.779-11.119,12.565-68.9-68.013-114.486a2.5,2.5,0,1,1,2.462-4.351c83.73,47.373,73.335,108.314,70.4,120.05A2.5,2.5,0,0,1,1086.327,284.018Z" style="         fill: #9b3c82;       "/>
        </g>
      </g>
      <path d="M1041.575,705.905c-53.854-80.007-132.7-153.345-182.2-177.568-9.413-4.606-18.626-3.49-24.223,2.107-36.861-75.829-172.721-229.594-314.9-184.307,0,0-16.85-10.532-32.648-11.585C467.3,333.2,329.629,351.4,329.629,351.4a436.476,436.476,0,0,1-45.287,52.659S131.631,877.993,384.394,936.971c132.088,30.821,303.316-11.585,371.773-49.5,0,0,24.223-30.543,23.17-80.042,18.406,19.822,99.15,46.781,174.1,2.192,42.854-23.256,74.045-56.835,87.738-76.049A24.284,24.284,0,0,0,1041.575,705.905Z" style="         fill: #66b0f0;       "/>
      <path d="M127.89,1026.23c-38.386,29.751-67.875,63.452-61.03,69.245S147.429,1096,311.2,898.53C311.2,898.53,220.6,954.38,127.89,1026.23Z" style="         fill: #5b2448;       "/>
      <path d="M691.923,1137.075c-23.56-24.865-35.808-37.914-35.808-37.914s21.063,41.074,18.957,88.467-18.957,37.915-22.117,18.957c0,0-6.319,38.968-28.436-11.585,0,0,7.373,37.915-28.436-2.106-68.551-76.619-124.275-107.424-313.321-113.838-61.19-2.085-106.287-7.815-139.357-14.692-.516-.106-1.011-.211-1.516-.316a350.522,350.522,0,0,1-42.485-11.5c-4.34-1.506-8.268-3-11.817-4.465-24.171-9.974-30.732-18.431-30.732-18.431L217.36,946.9l25.181-12.976,68.5-35.323c.1-.053.158-.074.158-.074,61.611,4.739,208,48.973,290.151,103.738S703.508,1105.48,711.933,1127.6,710.88,1157.086,691.923,1137.075Z" style="         fill: #f4ada2;       "/>
      <g style="         clip-path: url(#clip-path-5-i3);       ">
        <path d="M629.259,1212.772a2.5,2.5,0,0,1-2.5-2.5c0-31.15-33.205-80.113-54.134-103.658a2.5,2.5,0,0,1,3.737-3.322c15.408,17.334,55.4,70.344,55.4,106.98A2.5,2.5,0,0,1,629.259,1212.772Z" style="         fill: #9b3c82;       "/>
        <path d="M655.59,1222.25h-.078a2.5,2.5,0,0,1-2.423-2.575c1.543-50.9-13.786-96.191-46.863-138.456a2.5,2.5,0,0,1,3.938-3.082c33.826,43.225,49.5,89.571,47.923,141.69A2.5,2.5,0,0,1,655.59,1222.25Z" style="         fill: #9b3c82;       "/>
        <path d="M670.335,1122.2a2.5,2.5,0,0,1-2.2-1.3c-2.536-4.651-4.949-9.18-7.282-13.56-9.376-17.6-17.474-32.8-28.272-46.094a2.5,2.5,0,0,1,3.881-3.152c11.1,13.665,19.306,29.064,28.8,46.9,2.327,4.369,4.734,8.887,7.258,13.515a2.5,2.5,0,0,1-2.192,3.7Z" style="         fill: #9b3c82;       "/>
      </g>
      <path d="M311.2,898.53c-61.611,45.813-121.642,106.9-167.793,165.834-.516-.106-1.011-.211-1.516-.316a350.522,350.522,0,0,1-42.485-11.5c-4.34-1.506-8.268-3-11.817-4.465a184.819,184.819,0,0,1,33.512-34.229c42.843-33.2,86.677-60.336,121.442-79.926,38.715-21.821,66.182-34.281,68.5-35.323C311.145,898.551,311.2,898.53,311.2,898.53Z" style="         fill: #9b3c82;       "/>
      <path d="M295.4,878.52c42.128-104.265,107.425-448.655-4.212-476.038S-44.777,635.235,7.882,979.625c0,0-14.218,12.112-4.213,36.861,10.522,26.027,41.6,62.664,63.191,78.989C53.7,1079.15,217.992,947.5,311.2,898.53,311.2,898.53,315.937,886.418,295.4,878.52Z" style="         fill: #66b0f0;       "/>
      <g>
        <path d="M416.927,1091.273c10.7-45.456,34.523-100.084,63.433-143.865l-15-9.9-42.128-27.825q-3.744,5.672-7.372,11.511c-31.427,50.6-56.145,110.363-67.151,161.537Z" style="         fill: #5b2448;       "/>
        <ellipse cx="435.771" cy="946.719" rx="41.293" ry="59.167" transform="translate(-599.938 1062.82) rotate(-71.68)" style="         fill: #5b2448;       "/>
        <g style="         clip-path: url(#clip-path-6-i3);       ">
          <path d="M448.816,995.185a88.137,88.137,0,0,1-27.575-4.584c-16.367-5.419-30.306-14.993-39.247-26.959-9.141-12.234-12.008-25.517-8.072-37.4,8.011-24.2,42.274-34.7,76.38-23.4S505.633,943,497.621,967.2c-3.935,11.886-14.163,20.833-28.8,25.194A70.183,70.183,0,0,1,448.816,995.185ZM422.69,903.259c-21.221,0-38.888,9.048-44.022,24.553-3.406,10.289-.8,21.951,7.331,32.837,8.335,11.153,21.409,20.105,36.814,25.206s31.238,5.721,44.582,1.745c13.024-3.881,22.073-11.684,25.48-21.974h0c7.145-21.578-12.658-47.616-44.145-58.043A83.28,83.28,0,0,0,422.69,903.259Z" style="         fill: #fff;       "/>
        </g>
        <ellipse cx="437.76" cy="940.602" rx="35.41" ry="57.437" transform="translate(-592.767 1060.514) rotate(-71.68)" style="         fill: #fff;       "/>
        <path d="M431.521,959.987a2.5,2.5,0,0,1-2.343-3.375l7.688-20.6a2.5,2.5,0,0,1,3.264-1.45l31.887,12.651a2.5,2.5,0,0,1-1.844,4.649l-29.515-11.711-6.8,18.214A2.5,2.5,0,0,1,431.521,959.987Z" style="         fill: #5b2448;       "/>
      </g>
      <g style="         clip-path: url(#clip-path-7-i3);       ">
        <path d="M314.355,902.084a2.5,2.5,0,0,1-2.432-1.933A35.829,35.829,0,0,0,296.4,879.872a2.5,2.5,0,0,1-1.025-3.076c35.484-87.823,90.663-343.377,36.383-439.78-11.687-20.758-27.953-32.964-48.345-36.279a2.5,2.5,0,0,1,.8-4.936c21.967,3.573,39.428,16.614,51.9,38.762,17,30.19,33.583,94,16.06,226.544-11.76,88.954-34.7,173.486-51.394,215.637a40.257,40.257,0,0,1,16.012,22.277,2.5,2.5,0,0,1-2.439,3.063Z" style="         fill: #b0dcf7;       "/>
        <path d="M504.2,456.953c-13.739,0-34.521-11.843-53.371-22.585l-1.318-.751c-25.764-14.676-91.247-49.308-142.745-53.921a2.5,2.5,0,0,1,.447-4.981c21.713,1.946,69.395,11.621,144.773,54.557l1.319.752c20.7,11.8,49.046,27.95,57.67,19.758,5.833-5.543,6.036-25.544-26.124-89.355a2.5,2.5,0,1,1,4.465-2.25c36.376,72.175,31.748,88.916,25.1,95.23C511.8,455.887,508.316,456.953,504.2,456.953Z" style="         fill: #b0dcf7;       "/>
        <path d="M574.5,414.461a2.5,2.5,0,0,1-2.22-1.348c-40.706-78.357-78.448-78.715-78.824-78.694a2.5,2.5,0,0,1-.12-5c1.669-.03,41.018-.16,83.381,81.388a2.5,2.5,0,0,1-2.217,3.653Z" style="         fill: #b0dcf7;       "/>
        <path d="M957.848,823.1a2.5,2.5,0,0,1-2.466-2.109c-10.479-66.02-50.978-197.621-119.6-289.574a2.5,2.5,0,1,1,4.007-2.99C908.952,621.1,949.763,753.693,960.32,820.2a2.5,2.5,0,0,1-2.077,2.861A2.532,2.532,0,0,1,957.848,823.1Z" style="         fill: #b0dcf7;       "/>
        <path d="M3.671,982.125a2.5,2.5,0,0,1-1.57-4.447c36.105-29.084,86.92-55.463,143.085-74.278,47.021-15.751,94.2-25.156,135-27.046C187.156,855.8,84.443,884.82,83.351,885.135a2.5,2.5,0,0,1-1.386-4.8c.3-.085,29.906-8.538,71.236-13.246,38.188-4.351,94.528-6.313,146.072,9.04a2.5,2.5,0,0,1-.743,4.9c-44.1-.519-98,9.112-151.756,27.121C91.157,926.772,40.892,952.851,5.238,981.572A2.492,2.492,0,0,1,3.671,982.125Z" style="         fill: #b0dcf7;       "/>
        <path d="M882.019,709.351a2.5,2.5,0,0,1-2.482-2.221c-10.37-92.293-43.73-175.445-44.066-176.274a2.5,2.5,0,1,1,4.634-1.877c.339.835,33.952,84.594,44.4,177.592a2.5,2.5,0,0,1-2.2,2.764A2.449,2.449,0,0,1,882.019,709.351Z" style="         fill: #b0dcf7;       "/>
      </g>
      <g>
        <path d="M551.128,27.158a42.709,42.709,0,0,0-38.844,1.462c-14.564-42.579-71.256-33.342-78.035-.43-40.28-28.907-87.3,16.631-70.068,52.154,6.324,13.041,15.908,36.483,10.607,59.07,19.492,8.163,57.845,58.062,57.845,58.062s63.159-92.865,97.241-96.919C583.471,94.183,577.5,40.107,551.128,27.158Z" style="         fill: #5b2448;       "/>
        <g style="         clip-path: url(#clip-path-8-i3);       ">
          <path d="M492.955,49.22a2.5,2.5,0,0,1-2.246-3.594c13.139-27.01,38.047-26.832,39.095-26.817a2.5,2.5,0,0,1-.092,5c-.945,0-22.812-.036-34.507,24.006A2.5,2.5,0,0,1,492.955,49.22Z" style="         fill: #9b3c82;       "/>
        </g>
        <path d="M584.469,227.171c1.584,11.824-4.072,24.518-16.178,32.187-31.52,19.964-74.718,12.309-74.718,12.309s-10.18,32.343-3.861,87.108c0,0-62.371,19.214-160.083-7.372,0,0,33.7-47.393,50.095-128.55-23.08-1.858-49.913-23.675-45.941-55.026,2.268-17.883,20.546-30.941,38.969-29.026,18.92,1.965,32.105,16.7,47.337,31.57,17.221,16.806,21.328,1.8,26.844-17.128,3.544-12.158,7.659-25.934,16.21-33.936,19.326-18.1,66.731-18.75,66.731-18.75s.558,6.148,1.8,13.836c1.642,10.164,4.5,23.009,8.86,27.875,7.661,8.535,14.661,6.541,15.267,12.413.519,5.033-4.747,11.51-7.843,14.372C552.343,203.357,580.776,199.578,584.469,227.171Z" style="         fill: #f4ada2;       "/>
        <g style="         clip-path: url(#clip-path-9-i3);       ">
          <path d="M384.581,228.156a72.9,72.9,0,0,1-13.867-1.215,2.5,2.5,0,0,1,1.028-4.893h0c.194.041,19.534,3.95,37.793-3.413a2.5,2.5,0,0,1,1.87,4.638A72.367,72.367,0,0,1,384.581,228.156Z" style="         fill: #9b3c82;       "/>
          <path d="M493.573,271.667S467.6,266.1,450.744,249.244c-5.477,3.643-8.065,35.313,23.6,48.431C507.437,311.388,493.573,271.667,493.573,271.667Z" style="         fill: #5b2448;       "/>
        </g>
        <path d="M467.979,130.22l-.054-1.92c0-.594.02-1.176.072-1.749a24.308,24.308,0,0,1,.512-3.384,28.491,28.491,0,0,1,2.268-6.431,30.369,30.369,0,0,1,9.062-10.947,27.676,27.676,0,0,1,6.58-3.727,25.111,25.111,0,0,1,7.451-1.694,22,22,0,0,1,7.441.726,17.281,17.281,0,0,1,6.524,3.276,5.789,5.789,0,0,1-.457,9.309l-.913.6c-1.759,1.153-3.261,1.889-4.6,2.714-1.349.745-2.508,1.516-3.6,2.164l-6.1,3.82c-2.071,1.315-4.235,2.922-6.667,4.738l-3.819,2.9c-.661.513-1.363,1.029-2.078,1.553-.352.263-.726.523-1.1.78a5.311,5.311,0,0,1-1.115.659l-3.876.891a4.521,4.521,0,0,1-5.419-3.394A4.83,4.83,0,0,1,467.979,130.22Z" style="         fill: #5b2448;       "/>
        <path d="M492.538,145.877c4.963-2.339,17-7.672,27.263-16.362a3.393,3.393,0,0,1,4.806.419c3.12,3.736,7.09,10.659-.663,15.682-9.525,6.171-27.072,6.862-31.775,3.193A1.742,1.742,0,0,1,492.538,145.877Z" style="         fill: #5b2448;       "/>
        <circle cx="472.026" cy="197.229" r="22.768" style="         fill: #e57281;         opacity: 0.52;       "/>
        <path d="M541.05,201.6a14.773,14.773,0,0,1-5.086,3.71,19.975,19.975,0,0,1-5.957,1.621,22.053,22.053,0,0,1-12.168-1.977,22.285,22.285,0,0,1-5.142-3.6,20.578,20.578,0,0,1-3.824-4.963,17.388,17.388,0,0,1-1.944-12.079,2.244,2.244,0,0,1,4.423.294l.01.117a17.148,17.148,0,0,0,5.973,11.548,16.89,16.89,0,0,0,3.623,2.427,19.354,19.354,0,0,0,8.587,1.835,16.56,16.56,0,0,0,8.516-2.231l.109-.067a2.242,2.242,0,0,1,2.88,3.366Z" style="         fill: #9b3c82;       "/>
        <path d="M399.055,194.962a2.5,2.5,0,0,1-2.345-1.634c-10.893-29.5-35.638-26.678-36.686-26.542a2.5,2.5,0,0,1-.656-4.957c.3-.037,29.72-3.573,42.032,29.766a2.5,2.5,0,0,1-2.345,3.367Z" style="         fill: #9b3c82;       "/>
      </g>
      <path d="M757.41,945.65A505.853,505.853,0,0,1,665.1,978.361L646.773,926.4a617.476,617.476,0,0,0,90.194-30.11c.885-.38,1.759-.759,2.633-1.148Z" style="         fill: #ffcf2d;       "/>
      <path d="M489.712,358.775s50.553-1.053,82.148,42.127c0,0,161.172,194.334,212.346,395.44a35.515,35.515,0,0,1,.883,12.388c-1.644,16.007-8.851,48.933-25.771,76.841a5.271,5.271,0,0,1-7.037,1.8l-81.835-40.633a15.924,15.924,0,0,1-8.063-13.475c-.928-39.658-11.033-212.37-128.472-418.77,0,0-19.349,1.982-21.029-3.058C505.51,389.317,489.712,358.775,489.712,358.775Z" style="         fill: #f94f46;       "/>
      <path d="M533.416,419.727a2.5,2.5,0,0,1-.335-4.977,100.528,100.528,0,0,0,38.944-14.329,2.5,2.5,0,0,1,2.831,4.121,103.71,103.71,0,0,1-41.1,15.162A2.628,2.628,0,0,1,533.416,419.727Z" style="         fill: #66b0f0;       "/>
    </g>
  </g>
</g></g></g><!--ITEM 4--><g><defs><clipPath id="clip-path-id-viewbox-item-4"><rect x="0.0" y="0.0" width="144.567" height="124.463"/></clipPath></defs><g transform="translate(2145.6 159.6) rotate(0.0 78.59999999999991 67.8) scale(1.0873850878831255 1.0894804078320466)"><g clip-path="url(#clip-path-id-viewbox-item-4)" transform="translate(-0.0 -0.0)"><defs>
    
    <clipPath id="clip-path-i4">
      <path d="M45.373,16.935c-32.711,20.094-50.808,50.089-40.422,67l15.986,26.024c10.386,16.908,45.322,14.326,78.033-5.767s50.809-50.089,40.423-67L123.407,11.168C113.021-5.74,78.084-3.158,45.373,16.935Z" style="         fill: none;       "/>
    </clipPath>
  </defs>
  <g id="finance-i4">
    <g>
      <path d="M45.373,16.935c-32.711,20.094-50.808,50.089-40.422,67l15.986,26.024c10.386,16.908,45.322,14.326,78.033-5.767s50.809-50.089,40.423-67L123.407,11.168C113.021-5.74,78.084-3.158,45.373,16.935Z" style="         fill: #ffcf2d;       "/>
      <g style="         clip-path: url(#clip-path-i4);       ">
        <path d="M30.22,99.073C15.992,99.074,5.351,94.391,0,85.68l4.26-2.617c10.359,16.864,45.407,14.23,78.128-5.869S133.3,27.023,122.943,10.159L127.2,7.542c5.874,9.563,4.535,22.621-3.77,36.766-8.019,13.657-21.666,26.85-38.429,37.147S50.306,97.96,34.5,98.938Q32.31,99.073,30.22,99.073Z" style="         fill: #9b3c82;       "/>
        <rect x="88.517" y="77.502" width="5" height="29.489" transform="translate(-34.82 61.284) rotate(-31.561)" style="         fill: #9b3c82;       "/>
        <rect x="35.099" y="94.384" width="5" height="31.068" transform="translate(-51.971 35.939) rotate(-31.562)" style="         fill: #9b3c82;       "/>
        <rect x="64.082" y="89.513" width="5" height="30.542" transform="translate(-44.997 50.35) rotate(-31.562)" style="         fill: #9b3c82;       "/>
        <rect x="130.566" y="36.153" width="5" height="35.808" transform="translate(-8.611 77.644) rotate(-31.561)" style="         fill: #9b3c82;       "/>
        <rect x="111.644" y="60.297" width="5" height="30.542" transform="translate(-22.669 70.922) rotate(-31.561)" style="         fill: #9b3c82;       "/>
      </g>
      <path d="M37.293,68.788q-5.617,0-12.166-.466a2.5,2.5,0,0,1,.356-4.988C51.17,65.167,62.165,61.056,63.889,56.6c1.089-2.819-1.314-6.9-6.427-10.918-6.673-5.243-5.74-9.743-4.59-11.96,4.815-9.278,30.912-11.933,46.874-7.145a2.5,2.5,0,1,1-1.437,4.789c-15.477-4.643-37.992-1.134-41,4.66-.968,1.866,1.228,4.143,3.242,5.725,7.14,5.61,9.982,11.524,8,16.65C65.9,65.254,55.176,68.788,37.293,68.788Z" style="         fill: #9b3c82;       "/>
      <path d="M31.624,80.966a2.5,2.5,0,0,1-1.812-4.221l10.8-11.369a2.5,2.5,0,1,1,3.625,3.443l-10.8,11.369A2.492,2.492,0,0,1,31.624,80.966Z" style="         fill: #9b3c82;       "/>
      <path d="M80.786,29.217A2.5,2.5,0,0,1,78.974,25L89.843,13.554A2.5,2.5,0,1,1,93.468,17L82.6,28.438A2.493,2.493,0,0,1,80.786,29.217Z" style="         fill: #9b3c82;       "/>
      <path d="M30.682,90.2c-10.165,0-18.07-3.091-21.973-9.446C-.474,65.8,16.468,39.266,47.281,20.339S109.423-1.7,118.607,13.247h0c9.183,14.95-7.76,41.487-38.572,60.414C62.319,84.543,44.432,90.2,30.682,90.2Zm66.2-81.37c-12.8,0-30.27,5.5-46.986,15.771C22.422,41.477,5.511,65.994,12.969,78.136S49.942,86.278,77.418,69.4s44.387-41.394,36.928-53.536C111.425,11.109,105.122,8.829,96.884,8.829Z" style="         fill: #9b3c82;       "/>
    </g>
  </g>
</g></g></g><!--ITEM 5--><g><defs><clipPath id="clip-path-id-viewbox-item-5"><rect x="0.0" y="0.0" width="520.25" height="1144.478"/></clipPath></defs><g transform="translate(415.2 1244.3999999999999) rotate(0.0 278.4 612.6) scale(1.070254685247477 1.0705317183903929)"><g clip-path="url(#clip-path-id-viewbox-item-5)" transform="translate(-0.0 -0.0)"><g id="finance-i5">
    <g>
      <path d="M9.991,1144.479a10,10,0,0,1-8.277-15.6c78.77-116.6,168.717-282.626,253.272-467.49,88.651-193.822,167.067-397.628,226.77-589.385a10,10,0,0,1,19.1,5.946C440.9,270.5,362.171,475.129,273.174,669.708c-85,185.835-175.519,352.882-254.888,470.368A9.99,9.99,0,0,1,9.991,1144.479Z" style="         fill: #fc6151;       "/>
      <path d="M511.856,2.116,364.572,232.923a6.655,6.655,0,0,0,3.518,9.9L491.942,283.83a6.655,6.655,0,0,0,8.729-5.842l19.566-273.1A4.554,4.554,0,0,0,511.856,2.116Z" style="         fill: #fc6151;       "/>
    </g>
  </g>
</g></g></g></svg>